<?xml version="1.0" encoding="utf-8"?>
<!-- Generator: Adobe Illustrator 26.1.0, SVG Export Plug-In . SVG Version: 6.00 Build 0)  -->
<svg version="1.1" xmlns="http://www.w3.org/2000/svg" xmlns:xlink="http://www.w3.org/1999/xlink" x="0px" y="0px"
	 viewBox="0 0 16343.98 16187.55" style="enable-background:new 0 0 16343.98 16187.55;" xml:space="preserve">
<style type="text/css">
	.st0{fill:#FFFFFF;stroke:#000000;stroke-width:7;stroke-miterlimit:10;}
	.st1{fill:#C8C8C8;stroke:#000000;stroke-width:7;stroke-miterlimit:10;}
	.st2{font-family:'ArialMT';}
	.st3{font-size:240px;}
	.st4{fill:#FF0000;}
	.st5{font-size:120px;}
	.st6{fill:none;stroke:#FF0000;stroke-width:24;stroke-miterlimit:10;}
	.st7{fill:none;stroke:#FF0000;stroke-width:24;stroke-miterlimit:10;stroke-dasharray:11.9214,11.9214;}
	.st8{fill:none;stroke:#FF0000;stroke-width:24;stroke-miterlimit:10;stroke-dasharray:11.8421,11.8421;}
	.st9{fill:none;stroke:#FF0000;stroke-width:24;stroke-miterlimit:10;stroke-dasharray:11.9957,11.9957;}
	.st10{fill:none;stroke:#FF0000;stroke-width:24;stroke-miterlimit:10;stroke-dasharray:11.9482,11.9482;}
	.st11{fill:none;stroke:#FF0000;stroke-width:24;stroke-miterlimit:10;stroke-dasharray:11.9679,11.9679;}
	.st12{fill:none;stroke:#000000;stroke-width:10;stroke-miterlimit:10;}
</style>
<g id="Layer_1">
</g>
<g id="Layer_2">
	
		<rect x="9134.7" y="5977.87" transform="matrix(6.123234e-17 -1 1 6.123234e-17 5028.8271 17128.5625)" class="st0" width="3888" height="144"/>
	
		<rect x="3656.59" y="5977.87" transform="matrix(6.123234e-17 -1 1 6.123234e-17 -449.2734 11650.4619)" class="st0" width="3888" height="144"/>
	
		<rect x="11693.3" y="8701.79" transform="matrix(-1 -1.224647e-16 1.224647e-16 -1 27274.5938 17547.5859)" class="st0" width="3888" height="144"/>
	
		<rect x="11693.3" y="15343.79" transform="matrix(-1 -1.224647e-16 1.224647e-16 -1 27274.5938 30831.5859)" class="st0" width="3888" height="144"/>
	<rect x="5535.18" y="8976.82" class="st0" width="144" height="6552"/>
	<rect x="11016.05" y="8976.82" class="st0" width="144" height="6552"/>
	<rect x="5750.71" y="15366.82" class="st0" width="5184" height="144"/>
	<g>
		<rect x="5519.95" y="15168.82" class="st1" width="180" height="180"/>
		<rect x="5519.95" y="15348.82" class="st1" width="180" height="180"/>
		<rect x="5699.95" y="15348.82" class="st1" width="180" height="180"/>
	</g>
	<g>
		
			<rect x="10818.05" y="15348.82" transform="matrix(6.123234e-17 -1 1 6.123234e-17 -4530.7642 26346.873)" class="st1" width="180" height="180"/>
		
			<rect x="10998.05" y="15348.82" transform="matrix(6.123234e-17 -1 1 6.123234e-17 -4350.7642 26526.873)" class="st1" width="180" height="180"/>
		
			<rect x="10998.05" y="15168.82" transform="matrix(6.123234e-17 -1 1 6.123234e-17 -4170.7642 26346.873)" class="st1" width="180" height="180"/>
	</g>
	
		<rect x="5763.29" y="8724.82" transform="matrix(-1 -1.224647e-16 1.224647e-16 -1 16710.5898 17593.6387)" class="st0" width="5184" height="144"/>
	<g>
		
			<rect x="10998.05" y="8886.82" transform="matrix(-1 -1.224647e-16 1.224647e-16 -1 22176.1094 17953.6387)" class="st1" width="180" height="180"/>
		
			<rect x="10998.05" y="8706.82" transform="matrix(-1 -1.224647e-16 1.224647e-16 -1 22176.1094 17593.6387)" class="st1" width="180" height="180"/>
		
			<rect x="10818.05" y="8706.82" transform="matrix(-1 -1.224647e-16 1.224647e-16 -1 21816.1094 17593.6387)" class="st1" width="180" height="180"/>
	</g>
	
		<rect x="11441.3" y="8683.79" transform="matrix(-1 -1.224647e-16 1.224647e-16 -1 23026.5938 23919.5859)" class="st0" width="144" height="6552"/>
	<g>
		
			<rect x="11603.3" y="8683.79" transform="matrix(-1.836970e-16 1 -1 -1.836970e-16 20467.0898 -2919.5032)" class="st1" width="180" height="180"/>
		
			<rect x="11423.3" y="8683.79" transform="matrix(-1.836970e-16 1 -1 -1.836970e-16 20287.0898 -2739.5032)" class="st1" width="180" height="180"/>
		
			<rect x="11423.3" y="8863.79" transform="matrix(-1.836970e-16 1 -1 -1.836970e-16 20467.0898 -2559.5032)" class="st1" width="180" height="180"/>
	</g>
	<g>
		<rect x="11423.3" y="15145.79" class="st1" width="180" height="180"/>
		<rect x="11423.3" y="15325.79" class="st1" width="180" height="180"/>
		<rect x="11603.3" y="15325.79" class="st1" width="180" height="180"/>
	</g>
	<g>
		
			<rect x="5699.95" y="8706.82" transform="matrix(-1.836970e-16 1 -1 -1.836970e-16 14586.7725 3006.865)" class="st1" width="180" height="180"/>
		
			<rect x="5519.95" y="8706.82" transform="matrix(-1.836970e-16 1 -1 -1.836970e-16 14406.7725 3186.865)" class="st1" width="180" height="180"/>
		
			<rect x="5519.95" y="8886.82" transform="matrix(-1.836970e-16 1 -1 -1.836970e-16 14586.7725 3366.865)" class="st1" width="180" height="180"/>
	</g>
	
		<rect x="5753.94" y="3943.87" transform="matrix(-1 -1.224647e-16 1.224647e-16 -1 16691.8711 8031.7358)" class="st0" width="5184" height="144"/>
	<g>
		
			<rect x="10988.7" y="4105.87" transform="matrix(-1 -1.224647e-16 1.224647e-16 -1 22157.3906 8391.7354)" class="st1" width="180" height="180"/>
		
			<rect x="10988.7" y="3925.87" transform="matrix(-1 -1.224647e-16 1.224647e-16 -1 22157.3906 8031.7358)" class="st1" width="180" height="180"/>
		
			<rect x="10808.7" y="3925.87" transform="matrix(-1 -1.224647e-16 1.224647e-16 -1 21797.3906 8031.7358)" class="st1" width="180" height="180"/>
	</g>
	<g>
		
			<rect x="5690.59" y="3925.87" transform="matrix(-1.836970e-16 1 -1 -1.836970e-16 9796.4619 -1764.7266)" class="st1" width="180" height="180"/>
		
			<rect x="5510.59" y="3925.87" transform="matrix(-1.836970e-16 1 -1 -1.836970e-16 9616.4619 -1584.7266)" class="st1" width="180" height="180"/>
		
			<rect x="5510.59" y="4105.87" transform="matrix(-1.836970e-16 1 -1 -1.836970e-16 9796.4619 -1404.7266)" class="st1" width="180" height="180"/>
	</g>
	<text transform="matrix(1 0 0 1 7741.9482 14677.8027)" class="st2 st3">BACKSIDE</text>
	<text transform="matrix(1 0 0 1 7741.9482 12117.8184)" class="st4 st2 st3">WALL-SIDE</text>
	<text transform="matrix(1 0 0 1 13257.1387 11966.6035)"><tspan x="0" y="0" class="st2 st3">SIDE 1</tspan><tspan x="-506.84" y="288" class="st2 st3">(Closest to door)</tspan></text>
	<text transform="matrix(1 0 0 1 440.3281 643.9218)"><tspan x="0" y="0" class="st2 st3">Cleanbox 2˚ Containment</tspan><tspan x="0" y="288" class="st2 st3">Tristan A. Caro</tspan><tspan x="0" y="576" class="st2 st3">1” PVC Pipe (SCH 40):</tspan><tspan x="0" y="864" class="st2 st3">- 3x 72”</tspan><tspan x="0" y="1152" class="st2 st3">- 4x 54”</tspan><tspan x="0" y="1440" class="st2 st3">- 3x 90”</tspan><tspan x="0" y="1728" class="st2 st3">- 1x 24”</tspan><tspan x="0" y="2016" class="st2 st3">- 7x trigonal socket connectors</tspan><tspan x="0" y="2304" class="st2 st3">- 2x end-caps</tspan></text>
	<text transform="matrix(1 0 0 1 10611.4531 12252.8184)" class="st2 st3">90”</text>
	<text transform="matrix(1 0 0 1 5763.2949 12395.5879)" class="st2 st3">90”</text>
	<text transform="matrix(1 0 0 1 4692.5259 12395.5879)" class="st2 st3">90”</text>
	<text transform="matrix(1 0 0 1 11639.9346 12274.793)" class="st2 st3">90”</text>
	<text transform="matrix(1 0 0 1 15222.3066 12274.792)" class="st2 st3">90”</text>
	<text transform="matrix(1 0 0 1 8339.6445 9117.1748)" class="st2 st3">72”</text>
	<text transform="matrix(1 0 0 1 8240.8906 15325.793)" class="st2 st3">72”</text>
	<text transform="matrix(1 0 0 1 8355.2959 7993.8677)" class="st2 st3">72”</text>
	<text transform="matrix(1 0 0 1 8333.3535 4425.9438)" class="st2 st3">72”</text>
	<text transform="matrix(1 0 0 1 13478.4482 9290.0156)" class="st2 st3">54”</text>
	<text transform="matrix(1 0 0 1 13637.2959 15168.8184)" class="st2 st3">54”</text>
	<text transform="matrix(1 0 0 1 10611.4531 6342.9766)" class="st2 st3">54”</text>
	<text transform="matrix(1 0 0 1 5741.354 6342.9766)" class="st2 st3">54”</text>
	<rect x="15649.29" y="8953.79" class="st0" width="144" height="6552"/>
	<g>
		
			<rect x="15451.29" y="15325.79" transform="matrix(6.123234e-17 -1 1 6.123234e-17 125.4928 30957.0781)" class="st1" width="180" height="180"/>
		
			<rect x="15631.29" y="15325.79" transform="matrix(6.123234e-17 -1 1 6.123234e-17 305.4928 31137.0781)" class="st1" width="180" height="180"/>
		
			<rect x="15631.29" y="15145.79" transform="matrix(6.123234e-17 -1 1 6.123234e-17 485.4928 30957.0781)" class="st1" width="180" height="180"/>
	</g>
	<g>
		
			<rect x="15631.29" y="8863.79" transform="matrix(-1 -1.224647e-16 1.224647e-16 -1 31442.5723 17907.5859)" class="st1" width="180" height="180"/>
		
			<rect x="15631.29" y="8683.79" transform="matrix(-1 -1.224647e-16 1.224647e-16 -1 31442.5723 17547.5859)" class="st1" width="180" height="180"/>
		
			<rect x="15451.29" y="8683.79" transform="matrix(-1 -1.224647e-16 1.224647e-16 -1 31082.5723 17547.5859)" class="st1" width="180" height="180"/>
	</g>
	
		<rect x="1179.04" y="8724.82" transform="matrix(-1 -1.224647e-16 1.224647e-16 -1 6246.083 17593.6387)" class="st0" width="3888" height="144"/>
	
		<rect x="3209.03" y="15366.82" transform="matrix(-1 -1.224647e-16 1.224647e-16 -1 8146.0625 30877.6387)" class="st0" width="1728" height="144"/>
	
		<rect x="927.04" y="9043.79" transform="matrix(-1 -1.224647e-16 1.224647e-16 -1 1998.0833 21975.5859)" class="st0" width="144" height="3888"/>
	<g>
		
			<rect x="1089.04" y="8706.82" transform="matrix(-1.836970e-16 1 -1 -1.836970e-16 9975.8604 7617.7773)" class="st1" width="180" height="180"/>
		
			<rect x="909.04" y="8706.82" transform="matrix(-1.836970e-16 1 -1 -1.836970e-16 9795.8604 7797.7773)" class="st1" width="180" height="180"/>
		
			<rect x="909.04" y="8886.82" transform="matrix(-1.836970e-16 1 -1 -1.836970e-16 9975.8604 7977.7773)" class="st1" width="180" height="180"/>
	</g>
	<rect x="3033.04" y="15348.82" class="st1" width="180" height="180"/>
	<text transform="matrix(1 0 0 1 2742.8843 11989.6289)"><tspan x="0" y="0" class="st2 st3">SIDE 2</tspan><tspan x="-640.08" y="288" class="st2 st3">(Closest to walk-in)</tspan></text>
	<text transform="matrix(1 0 0 1 931.5878 14528.7002)"><tspan x="0" y="0" class="st2 st5">(Break here fits snug</tspan><tspan x="-50.19" y="144" class="st2 st5"> around the bench top)</tspan></text>
	<text transform="matrix(1 0 0 1 1125.6797 11651.9355)" class="st2 st3">54”</text>
	<text transform="matrix(1 0 0 1 2964.1934 9313.041)" class="st2 st3">54”</text>
	<text transform="matrix(0.892 0 0 1 3919.3711 15218.0674)" class="st2 st3">24”</text>
	<rect x="5135.03" y="8976.82" class="st0" width="144" height="6552"/>
	<g>
		
			<rect x="4937.03" y="15348.82" transform="matrix(6.123234e-17 -1 1 6.123234e-17 -10411.7881 20465.8496)" class="st1" width="180" height="180"/>
		
			<rect x="5117.03" y="15348.82" transform="matrix(6.123234e-17 -1 1 6.123234e-17 -10231.7881 20645.8496)" class="st1" width="180" height="180"/>
		
			<rect x="5117.03" y="15168.82" transform="matrix(6.123234e-17 -1 1 6.123234e-17 -10051.7881 20465.8496)" class="st1" width="180" height="180"/>
	</g>
	<g>
		
			<rect x="5117.03" y="8886.82" transform="matrix(-1 -1.224647e-16 1.224647e-16 -1 10414.0625 17953.6387)" class="st1" width="180" height="180"/>
		
			<rect x="5117.03" y="8706.82" transform="matrix(-1 -1.224647e-16 1.224647e-16 -1 10414.0625 17593.6387)" class="st1" width="180" height="180"/>
		
			<rect x="4937.03" y="8706.82" transform="matrix(-1 -1.224647e-16 1.224647e-16 -1 10054.0625 17593.6387)" class="st1" width="180" height="180"/>
	</g>
	<g>
		<g>
			<line class="st6" x1="11087.92" y1="15438.82" x2="11084.45" y2="15433.93"/>
			<line class="st7" x1="11077.54" y1="15424.21" x2="10141.65" y2="14107.6"/>
			<line class="st6" x1="10138.2" y1="14102.74" x2="10134.72" y2="14097.85"/>
		</g>
	</g>
	<g>
		<g>
			<line class="st6" x1="5607.18" y1="15438.82" x2="5610.66" y2="15433.93"/>
			<line class="st8" x1="5617.52" y1="15424.28" x2="6108.08" y2="14734.15"/>
			<line class="st6" x1="6111.51" y1="14729.33" x2="6114.99" y2="14724.44"/>
		</g>
	</g>
	<text transform="matrix(0.5492 0.8357 -0.8357 0.5492 10321.4453 14211.0186)" class="st4 st2 st3">SIDE 1</text>
	<text transform="matrix(0.5492 0.8357 -0.8357 0.5492 10308.6016 14605.3359)" class="st4 st2 st5">54”</text>
	<text transform="matrix(0.5492 0.8357 -0.8357 0.5492 6198.1753 9503.8867)" class="st4 st2 st5">54”</text>
	<text transform="matrix(0.619 -0.7854 0.7854 0.619 10462.7471 9571.8857)" class="st4 st2 st5">54”</text>
	<text transform="matrix(-5.118466e-07 -1 1 -5.118466e-07 10081.9746 12245.0117)" class="st4 st2 st5">90”</text>
	<text transform="matrix(1 0 0 1 8223.9814 10035.7754)" class="st4 st2 st5">72”</text>
	<text transform="matrix(-5.118466e-07 -1 1 -5.118466e-07 6679.0156 11292.8896)" class="st4 st2 st5">54”</text>
	<text transform="matrix(0.5794 -0.8151 0.8151 0.5794 6064.7461 15076.0059)" class="st4 st2 st5">24”</text>
	<text transform="matrix(0.621 -0.7838 0.7838 0.621 5878.9028 14892.3281)" class="st4 st2 st3">SIDE 2</text>
	<g>
		<g>
			<line class="st6" x1="10150.73" y1="14120.38" x2="10150.73" y2="14114.38"/>
			<line class="st9" x1="10150.73" y1="14102.38" x2="10150.73" y2="10149.79"/>
			<line class="st6" x1="10150.73" y1="10143.79" x2="10150.73" y2="10137.79"/>
		</g>
	</g>
	<g>
		<g>
			<line class="st6" x1="11088.05" y1="8796.82" x2="11084.58" y2="8801.71"/>
			<line class="st7" x1="11077.67" y1="8811.43" x2="10141.78" y2="10128.04"/>
			<line class="st6" x1="10138.33" y1="10132.9" x2="10134.85" y2="10137.79"/>
		</g>
	</g>
	<g>
		<g>
			<line class="st6" x1="5607.25" y1="8808.08" x2="5610.73" y2="8812.97"/>
			<line class="st7" x1="5617.63" y1="8822.69" x2="6553.52" y2="10139.3"/>
			<line class="st6" x1="6556.98" y1="10144.16" x2="6560.45" y2="10149.05"/>
		</g>
	</g>
	<g>
		<g>
			<line class="st6" x1="6544.44" y1="10126.52" x2="6544.44" y2="10132.52"/>
			<line class="st10" x1="6544.44" y1="10144.47" x2="6544.44" y2="11954.63"/>
			<line class="st6" x1="6544.44" y1="11960.6" x2="6544.44" y2="11966.6"/>
		</g>
	</g>
	<g>
		<g>
			<line class="st6" x1="10134.85" y1="10137.79" x2="10128.85" y2="10137.79"/>
			<line class="st11" x1="10116.88" y1="10137.79" x2="6556.42" y2="10137.79"/>
			<line class="st6" x1="6550.44" y1="10137.79" x2="6544.44" y2="10137.79"/>
		</g>
	</g>
	
		<rect x="909.04" y="12886.25" transform="matrix(6.928204e-07 1 -1 6.928204e-07 13975.2959 11977.2041)" class="st1" width="180" height="180"/>
	<rect x="5741.35" y="8106.6" class="st0" width="5184" height="144"/>
	<g>
		<rect x="5510.59" y="7908.6" class="st1" width="180" height="180"/>
		<rect x="5510.59" y="8088.6" class="st1" width="180" height="180"/>
		<rect x="5690.59" y="8088.6" class="st1" width="180" height="180"/>
	</g>
	<g>
		
			<rect x="10808.7" y="8088.6" transform="matrix(6.123234e-17 -1 1 6.123234e-17 2720.0903 19077.3008)" class="st1" width="180" height="180"/>
		
			<rect x="10988.7" y="8088.6" transform="matrix(6.123234e-17 -1 1 6.123234e-17 2900.0903 19257.3008)" class="st1" width="180" height="180"/>
		
			<rect x="10988.7" y="7908.6" transform="matrix(6.123234e-17 -1 1 6.123234e-17 3080.0903 19077.3008)" class="st1" width="180" height="180"/>
	</g>
	<rect x="257.99" y="288.32" class="st12" width="5730.1" height="2875.52"/>
</g>
<g id="Layer_3">
</g>
</svg>
