<?xml version="1.0" encoding="utf-8"?>
<!-- Generator: Adobe Illustrator 26.0.3, SVG Export Plug-In . SVG Version: 6.00 Build 0)  -->
<svg version="1.1" xmlns="http://www.w3.org/2000/svg" xmlns:xlink="http://www.w3.org/1999/xlink" x="0px" y="0px"
	 viewBox="0 0 2592 1728" style="enable-background:new 0 0 2592 1728;" xml:space="preserve">
<style type="text/css">
	.st0{fill:none;stroke:#FF0000;stroke-miterlimit:10;}
	.st1{fill:#FFFFFF;stroke:#969696;stroke-width:2;stroke-miterlimit:10;}
	.st2{stroke:#969696;stroke-width:2;stroke-miterlimit:10;}
	.st3{font-family:'Arial-BoldMT';}
	.st4{font-size:12px;}
	.st5{fill:none;stroke:#000000;stroke-width:2;stroke-miterlimit:10;}
	.st6{font-family:'MyriadPro-Regular';}
</style>
<g id="Layer_1">
	<rect x="25.03" y="270.89" class="st0" width="725.67" height="243.78"/>
	<circle class="st0" cx="110.07" cy="313.41" r="28.35"/>
	<circle class="st0" cx="189.44" cy="313.41" r="28.35"/>
	<circle class="st0" cx="268.81" cy="313.41" r="28.35"/>
	<circle class="st0" cx="348.18" cy="313.41" r="28.35"/>
	<circle class="st0" cx="427.55" cy="313.41" r="28.35"/>
	<circle class="st0" cx="506.92" cy="313.41" r="28.35"/>
	<circle class="st0" cx="110.07" cy="392.78" r="28.35"/>
	<circle class="st0" cx="189.44" cy="392.78" r="28.35"/>
	<circle class="st0" cx="268.81" cy="392.78" r="28.35"/>
	<circle class="st0" cx="348.18" cy="392.78" r="28.35"/>
	<circle class="st0" cx="427.55" cy="392.78" r="28.35"/>
	<circle class="st0" cx="506.92" cy="392.78" r="28.35"/>
	<circle class="st0" cx="110.07" cy="472.15" r="28.35"/>
	<circle class="st0" cx="189.44" cy="472.15" r="28.35"/>
	<circle class="st0" cx="268.81" cy="472.15" r="28.35"/>
	<circle class="st0" cx="348.18" cy="472.15" r="28.35"/>
	<circle class="st0" cx="427.55" cy="472.15" r="28.35"/>
	<circle class="st0" cx="506.92" cy="472.15" r="28.35"/>
	<circle class="st0" cx="506.92" cy="313.41" r="28.35"/>
	<circle class="st0" cx="586.29" cy="313.41" r="28.35"/>
	<circle class="st0" cx="506.92" cy="392.78" r="28.35"/>
	<circle class="st0" cx="586.29" cy="392.78" r="28.35"/>
	<circle class="st0" cx="506.92" cy="472.15" r="28.35"/>
	<circle class="st0" cx="586.29" cy="472.15" r="28.35"/>
	<circle class="st0" cx="586.29" cy="313.41" r="28.35"/>
	<circle class="st0" cx="665.66" cy="313.41" r="28.35"/>
	<circle class="st0" cx="586.29" cy="392.78" r="28.35"/>
	<circle class="st0" cx="665.66" cy="392.78" r="28.35"/>
	<circle class="st0" cx="586.29" cy="472.15" r="28.35"/>
	<circle class="st0" cx="665.66" cy="472.15" r="28.35"/>
	<rect x="48.98" y="364.43" class="st0" width="8.79" height="56.69"/>
	
		<rect x="717.96" y="364.43" transform="matrix(-1 -1.224647e-16 1.224647e-16 -1 1444.701 785.5592)" class="st0" width="8.79" height="56.69"/>
	<rect x="25.03" y="514.67" class="st0" width="725.67" height="243.78"/>
	<rect x="48.98" y="608.21" class="st0" width="8.79" height="56.69"/>
	
		<rect x="717.96" y="608.21" transform="matrix(-1 -1.224647e-16 1.224647e-16 -1 1444.701 1273.1183)" class="st0" width="8.79" height="56.69"/>
	<rect x="25.03" y="27.11" class="st0" width="725.67" height="243.78"/>
	<circle class="st0" cx="110.07" cy="69.63" r="28.35"/>
	<circle class="st0" cx="189.44" cy="69.63" r="28.35"/>
	<circle class="st0" cx="268.81" cy="69.63" r="28.35"/>
	<circle class="st0" cx="348.18" cy="69.63" r="28.35"/>
	<circle class="st0" cx="427.55" cy="69.63" r="28.35"/>
	<circle class="st0" cx="506.92" cy="69.63" r="28.35"/>
	<circle class="st0" cx="110.07" cy="149" r="28.35"/>
	<circle class="st0" cx="189.44" cy="149" r="28.35"/>
	<circle class="st0" cx="268.81" cy="149" r="28.35"/>
	<circle class="st0" cx="348.18" cy="149" r="28.35"/>
	<circle class="st0" cx="427.55" cy="149" r="28.35"/>
	<circle class="st0" cx="506.92" cy="149" r="28.35"/>
	<circle class="st0" cx="110.07" cy="228.37" r="28.35"/>
	<circle class="st0" cx="189.44" cy="228.37" r="28.35"/>
	<circle class="st0" cx="268.81" cy="228.37" r="28.35"/>
	<circle class="st0" cx="348.18" cy="228.37" r="28.35"/>
	<circle class="st0" cx="427.55" cy="228.37" r="28.35"/>
	<circle class="st0" cx="506.92" cy="228.37" r="28.35"/>
	<circle class="st0" cx="506.92" cy="69.63" r="28.35"/>
	<circle class="st0" cx="586.29" cy="69.63" r="28.35"/>
	<circle class="st0" cx="506.92" cy="149" r="28.35"/>
	<circle class="st0" cx="586.29" cy="149" r="28.35"/>
	<circle class="st0" cx="506.92" cy="228.37" r="28.35"/>
	<circle class="st0" cx="586.29" cy="228.37" r="28.35"/>
	<circle class="st0" cx="586.29" cy="69.63" r="28.35"/>
	<circle class="st0" cx="665.66" cy="69.63" r="28.35"/>
	<circle class="st0" cx="586.29" cy="149" r="28.35"/>
	<circle class="st0" cx="665.66" cy="149" r="28.35"/>
	<circle class="st0" cx="586.29" cy="228.37" r="28.35"/>
	<circle class="st0" cx="665.66" cy="228.37" r="28.35"/>
	<rect x="48.98" y="120.65" class="st0" width="8.79" height="56.69"/>
	
		<rect x="717.96" y="120.65" transform="matrix(-1 -1.224647e-16 1.224647e-16 -1 1444.701 298.0002)" class="st0" width="8.79" height="56.69"/>
	
		<rect x="580.62" y="197.19" transform="matrix(3.464102e-07 1 -1 3.464102e-07 1004.5787 -553.508)" class="st0" width="396.85" height="56.69"/>
	
		<rect x="25.03" y="758.45" transform="matrix(-1 3.464102e-07 -3.464102e-07 -1 446.906 1573.5908)" class="st0" width="396.85" height="56.69"/>
</g>
<g id="Layer_2">
	<g>
		<polygon class="st1" points="398.42,618.56 377.16,618.56 366.53,636.97 377.16,655.38 398.42,655.38 409.05,636.97 		"/>
		<polygon class="st2" points="398.42,580.09 377.16,580.09 366.53,598.5 377.16,616.91 398.42,616.91 409.05,598.5 		"/>
		<polygon class="st2" points="398.42,657.03 377.16,657.03 366.53,675.44 377.16,693.85 398.42,693.85 409.05,675.44 		"/>
		<polygon class="st2" points="430.97,599.15 409.71,599.15 399.08,617.56 409.71,635.97 430.97,635.97 441.6,617.56 		"/>
		<polygon class="st2" points="430.97,637.62 409.71,637.62 399.08,656.03 409.71,674.44 430.97,674.44 441.6,656.03 		"/>
		<polygon class="st2" points="464.46,618.38 443.2,618.38 432.57,636.8 443.2,655.21 464.46,655.21 475.09,636.8 		"/>
		<polygon class="st2" points="464.46,579.91 443.2,579.91 432.57,598.32 443.2,616.74 464.46,616.74 475.09,598.32 		"/>
		<polygon class="st2" points="464.46,656.85 443.2,656.85 432.57,675.27 443.2,693.68 464.46,693.68 475.09,675.27 		"/>
		<polygon class="st2" points="332.52,619.21 311.26,619.21 300.63,637.62 311.26,656.03 332.52,656.03 343.15,637.62 		"/>
		<polygon class="st2" points="332.52,580.74 311.26,580.74 300.63,599.15 311.26,617.56 332.52,617.56 343.15,599.15 		"/>
		<polygon class="st2" points="332.52,657.68 311.26,657.68 300.63,676.09 311.26,694.5 332.52,694.5 343.15,676.09 		"/>
		<polygon class="st2" points="365.83,599.97 344.57,599.97 333.94,618.38 344.57,636.8 365.83,636.8 376.45,618.38 		"/>
		<polygon class="st2" points="365.83,561.5 344.57,561.5 333.94,579.91 344.57,598.32 365.83,598.32 376.45,579.91 		"/>
		<polygon class="st2" points="398.42,543.09 377.16,543.09 366.53,561.5 377.16,579.91 398.42,579.91 409.05,561.5 		"/>
		<polygon class="st2" points="430.97,560.68 409.71,560.68 399.08,579.09 409.71,597.5 430.97,597.5 441.6,579.09 		"/>
		<polygon class="st2" points="365.83,676.09 344.57,676.09 333.94,694.5 344.57,712.91 365.83,712.91 376.45,694.5 		"/>
		<polygon class="st2" points="430.97,676.09 409.71,676.09 399.08,694.5 409.71,712.91 430.97,712.91 441.6,694.5 		"/>
		<polygon class="st2" points="398.42,694.5 377.16,694.5 366.53,712.91 377.16,731.32 398.42,731.32 409.05,712.91 		"/>
		<polygon class="st2" points="365.83,638.44 344.57,638.44 333.94,656.85 344.57,675.27 365.83,675.27 376.45,656.85 		"/>
	</g>
</g>
<g id="Layer_3">
	<text transform="matrix(1 0 0 1 923.679 62.6553)"><tspan x="0" y="0" class="st3 st4">Balch tube horizontal incubation rack </tspan><tspan x="0" y="14.4" class="st3 st4">TRISTAN A. CARO</tspan><tspan x="0" y="43.2" class="st3 st4">ACRYLIC</tspan><tspan x="0" y="57.6" class="st3 st4">3.175mm </tspan><tspan x="0" y="100.8" class="st3 st4">LAYER 1: VECTOR CUT</tspan><tspan x="0" y="115.2" class="st3 st4">LAYER 2: RASTER ENGRAVE</tspan><tspan x="0" y="129.6" class="st3 st4">LAYER 3: ANNOTATIONS</tspan></text>
	<rect x="909.44" y="40.14" class="st5" width="247.16" height="161.03"/>
	<text transform="matrix(1 0 0 1 758.032 200.0237)" class="st6 st4">STRUT 1</text>
	<text transform="matrix(1 0 0 1 36.154 744.2709)" class="st6 st4">BACKSTOP</text>
	<text transform="matrix(1 0 0 1 81.7208 355.9187)" class="st6 st4">SHELF 1</text>
	<text transform="matrix(1 0 0 1 81.7208 113.8126)" class="st6 st4">SHELF 2</text>
	<text transform="matrix(1 0 0 1 200.927 786.7954)" class="st6 st4">STRUT 2</text>
</g>
</svg>
