<?xml version="1.0" encoding="utf-8"?>
<!-- Generator: Adobe Illustrator 26.0.2, SVG Export Plug-In . SVG Version: 6.00 Build 0)  -->
<svg version="1.1" xmlns="http://www.w3.org/2000/svg" xmlns:xlink="http://www.w3.org/1999/xlink" x="0px" y="0px"
	 viewBox="0 0 2592 1728" style="enable-background:new 0 0 2592 1728;" xml:space="preserve">
<style type="text/css">
	.st0{fill:none;stroke:#FF0000;stroke-width:0.1164;stroke-miterlimit:10;}
	.st1{fill:none;stroke:#FF0000;stroke-width:0.25;stroke-miterlimit:10;}
	.st2{fill:none;stroke:#FF0000;stroke-width:0.2924;stroke-miterlimit:10;}
	.st3{font-family:'AvenirLTStd-Black';}
	.st4{font-size:12px;}
	.st5{font-size:10px;}
	.st6{display:none;}
	.st7{display:inline;}
	.st8{display:inline;fill:none;stroke:#000000;stroke-width:2;stroke-miterlimit:10;}
</style>
<g id="Layer_1">
	<rect x="65.65" y="62.34" class="st0" width="36" height="7.09"/>
	<rect x="126.65" y="62.34" class="st0" width="36" height="7.09"/>
	<rect x="186.65" y="62.34" class="st0" width="36" height="7.09"/>
	<rect x="247.65" y="62.34" class="st0" width="36" height="7.09"/>
	<rect x="309.65" y="62.34" class="st0" width="36" height="7.09"/>
	<rect x="369.65" y="62.34" class="st0" width="36" height="7.09"/>
	<rect x="430.65" y="62.34" class="st0" width="36" height="7.09"/>
	<rect x="65.65" y="118.16" class="st0" width="36" height="7.09"/>
	<rect x="126.65" y="118.16" class="st0" width="36" height="7.09"/>
	<rect x="186.65" y="118.16" class="st0" width="36" height="7.09"/>
	<rect x="247.65" y="118.16" class="st0" width="36" height="7.09"/>
	<rect x="309.65" y="118.16" class="st0" width="36" height="7.09"/>
	<rect x="369.65" y="118.16" class="st0" width="36" height="7.09"/>
	<rect x="430.65" y="118.16" class="st0" width="36" height="7.09"/>
	<polygon class="st1" points="488.56,509.52 488.56,710.85 40.34,710.85 40.34,509.52 65.65,509.52 65.65,467.88 101.65,467.88 
		101.65,509.52 126.65,509.52 126.65,467.88 162.65,467.88 162.65,509.52 186.65,509.52 186.65,467.88 222.65,467.88 222.65,509.52 
		247.65,509.52 247.65,467.88 283.65,467.88 283.65,509.52 309.65,509.52 309.65,467.88 345.65,467.88 345.65,509.52 369.65,509.52 
		369.65,467.88 405.65,467.88 405.65,509.52 430.65,509.52 430.65,467.88 466.65,467.88 466.65,509.52 	"/>
	<rect x="23.62" y="15.03" class="st2" width="483.78" height="419.51"/>
	<polygon class="st1" points="488.56,783.14 488.56,864.63 40.34,864.63 40.34,783.14 65.65,783.14 65.65,741.5 101.65,741.5 
		101.65,783.14 126.65,783.14 126.65,741.5 162.65,741.5 162.65,783.14 186.65,783.14 186.65,741.5 222.65,741.5 222.65,783.14 
		247.65,783.14 247.65,741.5 283.65,741.5 283.65,783.14 309.65,783.14 309.65,741.5 345.65,741.5 345.65,783.14 369.65,783.14 
		369.65,741.5 405.65,741.5 405.65,783.14 430.65,783.14 430.65,741.5 466.65,741.5 466.65,783.14 	"/>
</g>
<g id="Layer_2">
	<text transform="matrix(1 0 0 1 110.9672 42.2986)" class="st3 st4">1</text>
	<text transform="matrix(1 0 0 1 170.2639 42.2989)" class="st3 st4">2</text>
	<text transform="matrix(1 0 0 1 230.209 42.299)" class="st3 st4">3</text>
	<text transform="matrix(1 0 0 1 289.7585 42.2988)" class="st3 st4">4</text>
	<text transform="matrix(1 0 0 1 352.2639 42.2987)" class="st3 st4">5</text>
	<text transform="matrix(1 0 0 1 414.7474 42.2986)" class="st3 st4">6</text>
	<text transform="matrix(0 -1 1 0 497.8024 273.6167)" class="st3 st5">Please ensure needle is dry of solvent before placing</text>
</g>
<g id="Layer_3" class="st6">
	<text transform="matrix(1 0 0 1 516.2528 26.3425)" class="st7 st3 st4">BASE PLATE</text>
	<text transform="matrix(1 0 0 1 633.7474 33.9463)" class="st7"><tspan x="0" y="0" class="st3 st4">AIR TIGHT SYRINGE HOLDER </tspan><tspan x="0" y="14.4" class="st3 st4">TRISTAN A. CARO</tspan><tspan x="0" y="43.2" class="st3 st4">ACRYLIC SHEET</tspan><tspan x="0" y="57.6" class="st3 st4">2.5 mm (0.1”)</tspan><tspan x="0" y="86.4" class="st3 st4">LAYER 1: VECTOR CUT</tspan><tspan x="0" y="100.8" class="st3 st4">LAYER 2: RASTER ENGRAVE</tspan><tspan x="0" y="115.2" class="st3 st4">LAYER 3: ANNOTATIONS</tspan></text>
	<text transform="matrix(1 0 0 1 516.2527 525.7133)" class="st7 st3 st4">SUPPORT (TOP)</text>
	<text transform="matrix(1 0 0 1 502.8021 806.0733)" class="st7 st3 st4">SUPPORT (BOTTOM)</text>
	<rect x="619.51" y="11.43" class="st8" width="226.29" height="161.03"/>
</g>
</svg>
